<svg xmlns="http://www.w3.org/2000/svg" xmlns:xlink="http://www.w3.org/1999/xlink" width="500" zoomAndPan="magnify" viewBox="0 0 375 374.999991" height="500" preserveAspectRatio="xMidYMid meet" version="1.2"><defs><clipPath id="075ba57479"><path d="M 283 81 L 315 81 L 315 125 L 283 125 Z M 283 81 "/></clipPath><clipPath id="3e66627355"><path d="M 280.777344 82.480469 L 312.136719 79.515625 L 316.300781 123.570312 L 284.941406 126.535156 Z M 280.777344 82.480469 "/></clipPath><clipPath id="3c047704ac"><path d="M 280.777344 82.480469 L 312.136719 79.515625 L 316.300781 123.570312 L 284.941406 126.535156 Z M 280.777344 82.480469 "/></clipPath><clipPath id="382d11c7ed"><path d="M 54.285156 114.945312 L 158.5 114.945312 L 158.5 219.160156 L 54.285156 219.160156 Z M 54.285156 114.945312 "/></clipPath><clipPath id="373d708a49"><path d="M 106.390625 114.945312 C 77.613281 114.945312 54.285156 138.273438 54.285156 167.054688 C 54.285156 195.832031 77.613281 219.160156 106.390625 219.160156 C 135.171875 219.160156 158.5 195.832031 158.5 167.054688 C 158.5 138.273438 135.171875 114.945312 106.390625 114.945312 Z M 106.390625 114.945312 "/></clipPath><clipPath id="08bb44e37e"><path d="M 50.070312 107.613281 L 162.570312 107.613281 L 162.570312 220.113281 L 50.070312 220.113281 Z M 50.070312 107.613281 "/></clipPath><clipPath id="5c73faca18"><path d="M 77 250 L 109 250 L 109 296 L 77 296 Z M 77 250 "/></clipPath><clipPath id="5c6e55bc18"><path d="M 103.003906 298.019531 L 72.105469 291.898438 L 80.703125 248.492188 L 111.601562 254.613281 Z M 103.003906 298.019531 "/></clipPath><clipPath id="4bf86d00d1"><path d="M 103.003906 298.019531 L 72.105469 291.898438 L 80.703125 248.492188 L 111.601562 254.613281 Z M 103.003906 298.019531 "/></clipPath></defs><g id="6062a94ded"><g style="fill:#ea5b62;fill-opacity:1;"><g transform="translate(24.325522, 240.829038)"><path style="stroke:none" d="M 81.421875 -157.34375 C 102.347656 -157.34375 120.515625 -149.773438 135.921875 -134.640625 C 151.328125 -119.515625 159.03125 -100.75 159.03125 -78.34375 C 159.03125 -55.9375 151.675781 -36.851562 136.96875 -21.09375 C 122.269531 -5.332031 104.175781 2.546875 82.6875 2.546875 C 61.207031 2.546875 42.9375 -5.226562 27.875 -20.78125 C 12.820312 -36.332031 5.296875 -54.851562 5.296875 -76.34375 C 5.296875 -88.070312 7.414062 -99.0625 11.65625 -109.3125 C 15.90625 -119.5625 21.5625 -128.148438 28.625 -135.078125 C 35.695312 -142.003906 43.828125 -147.445312 53.015625 -151.40625 C 62.203125 -155.363281 71.671875 -157.34375 81.421875 -157.34375 Z M 42.828125 -77.390625 C 42.828125 -64.816406 46.890625 -54.601562 55.015625 -46.75 C 63.148438 -38.90625 72.234375 -34.984375 82.265625 -34.984375 C 92.304688 -34.984375 101.351562 -38.800781 109.40625 -46.4375 C 117.46875 -54.070312 121.5 -64.320312 121.5 -77.1875 C 121.5 -90.050781 117.4375 -100.367188 109.3125 -108.140625 C 101.1875 -115.921875 92.101562 -119.8125 82.0625 -119.8125 C 72.019531 -119.8125 62.96875 -115.882812 54.90625 -108.03125 C 46.851562 -100.1875 42.828125 -89.972656 42.828125 -77.390625 Z M 42.828125 -77.390625 "/></g></g><g style="fill:#ea5b62;fill-opacity:1;"><g transform="translate(179.737894, 240.829038)"><path style="stroke:none" d="M 37 -128.390625 C 34.382812 -127.617188 30.882812 -127.234375 26.5 -127.234375 C 22.125 -127.234375 18.660156 -127.65625 16.109375 -128.5 C 13.566406 -129.34375 11.765625 -130.789062 10.703125 -132.84375 C 9.648438 -134.894531 9.015625 -136.734375 8.796875 -138.359375 C 8.585938 -139.984375 8.484375 -142.421875 8.484375 -145.671875 C 8.484375 -148.921875 8.585938 -151.320312 8.796875 -152.875 C 9.015625 -154.4375 9.617188 -156.207031 10.609375 -158.1875 C 12.585938 -161.863281 18.03125 -163.703125 26.9375 -163.703125 C 35.414062 -163.703125 40.710938 -161.863281 42.828125 -158.1875 C 43.816406 -156.351562 44.414062 -154.65625 44.625 -153.09375 C 44.84375 -151.539062 44.953125 -149.207031 44.953125 -146.09375 L 44.953125 -144.828125 C 44.953125 -141.710938 44.84375 -139.378906 44.625 -137.828125 C 44.414062 -136.273438 43.742188 -134.507812 42.609375 -132.53125 C 41.484375 -130.550781 39.613281 -129.171875 37 -128.390625 Z M 16.4375 -111.109375 C 19.050781 -111.960938 22.546875 -112.390625 26.921875 -112.390625 C 31.304688 -112.390625 34.769531 -111.960938 37.3125 -111.109375 C 39.863281 -110.265625 41.664062 -108.816406 42.71875 -106.765625 C 43.78125 -104.710938 44.414062 -102.875 44.625 -101.25 C 44.84375 -99.625 44.953125 -97.1875 44.953125 -93.9375 L 44.953125 -6.578125 C 44.953125 9.960938 39.226562 23.179688 27.78125 33.078125 C 16.332031 42.972656 3.75 47.921875 -9.96875 47.921875 C -13.21875 47.921875 -15.617188 47.8125 -17.171875 47.59375 C -18.734375 47.382812 -20.503906 46.785156 -22.484375 45.796875 C -26.148438 43.816406 -27.984375 38.65625 -27.984375 30.3125 C -27.984375 21.976562 -26.460938 16.75 -23.421875 14.625 C -20.390625 12.507812 -16.289062 11.453125 -11.125 11.453125 C -5.96875 11.453125 -1.410156 10.035156 2.546875 7.203125 C 6.503906 4.378906 8.484375 -0.707031 8.484375 -8.0625 L 8.484375 -95.421875 C 8.484375 -100.367188 9.15625 -104.007812 10.5 -106.34375 C 11.84375 -108.675781 13.820312 -110.265625 16.4375 -111.109375 Z M 16.4375 -111.109375 "/></g></g><g style="fill:#ea5b62;fill-opacity:1;"><g transform="translate(224.26154, 240.829038)"><path style="stroke:none" d="M 81 -99.875 C 81.851562 -107.789062 87.4375 -111.75 97.75 -111.75 C 103.257812 -111.75 107.359375 -111.320312 110.046875 -110.46875 C 112.734375 -109.625 114.609375 -108.140625 115.671875 -106.015625 C 116.734375 -103.898438 117.367188 -102.03125 117.578125 -100.40625 C 117.785156 -98.78125 117.890625 -96.34375 117.890625 -93.09375 L 117.890625 -18.875 C 117.890625 -15.625 117.785156 -13.1875 117.578125 -11.5625 C 117.367188 -9.9375 116.769531 -8.0625 115.78125 -5.9375 C 113.800781 -2.257812 108.957031 -0.421875 101.25 -0.421875 C 93.550781 -0.421875 88.390625 -1.375 85.765625 -3.28125 C 83.148438 -5.195312 81.632812 -7.988281 81.21875 -11.65625 C 75.988281 -4.164062 67.257812 -0.421875 55.03125 -0.421875 C 42.800781 -0.421875 31.453125 -6.003906 20.984375 -17.171875 C 10.523438 -28.335938 5.296875 -41.304688 5.296875 -56.078125 C 5.296875 -70.859375 10.5625 -83.796875 21.09375 -94.890625 C 31.625 -105.984375 43.179688 -111.53125 55.765625 -111.53125 C 60.578125 -111.53125 64.960938 -110.679688 68.921875 -108.984375 C 72.878906 -107.296875 75.632812 -105.707031 77.1875 -104.21875 C 78.738281 -102.738281 80.007812 -101.289062 81 -99.875 Z M 42.40625 -55.765625 C 42.40625 -51.097656 44.242188 -46.890625 47.921875 -43.140625 C 51.597656 -39.398438 56.050781 -37.53125 61.28125 -37.53125 C 66.507812 -37.53125 70.851562 -39.4375 74.3125 -43.25 C 77.78125 -47.070312 79.515625 -51.28125 79.515625 -55.875 C 79.515625 -60.46875 77.851562 -64.742188 74.53125 -68.703125 C 71.207031 -72.660156 66.753906 -74.640625 61.171875 -74.640625 C 55.585938 -74.640625 51.0625 -72.660156 47.59375 -68.703125 C 44.132812 -64.742188 42.40625 -60.429688 42.40625 -55.765625 Z M 42.40625 -55.765625 "/></g></g><g clip-rule="nonzero" clip-path="url(#075ba57479)"><g clip-rule="nonzero" clip-path="url(#3e66627355)"><g clip-rule="nonzero" clip-path="url(#3c047704ac)"><path style=" stroke:none;fill-rule:nonzero;fill:#ea5b62;fill-opacity:1;" d="M 300.066406 104.105469 C 302.414062 102.179688 305.25 100.558594 308.28125 100.683594 C 311.316406 100.808594 314.382812 103.28125 314.222656 106.308594 C 314.132812 107.953125 313.148438 109.445312 311.890625 110.503906 C 310.632812 111.566406 309.113281 112.265625 307.617188 112.949219 C 305 114.144531 302.386719 115.339844 299.769531 116.535156 C 297.367188 117.632812 294.515625 119.574219 291.9375 120.113281 C 288.953125 120.738281 290.796875 117.191406 291.414062 115.730469 C 292.3125 113.601562 293.457031 111.574219 294.808594 109.703125 C 296.277344 107.675781 298.039062 105.597656 300.066406 104.105469 Z M 302.457031 120.277344 C 301.136719 120.765625 297.59375 121.972656 297.003906 123.382812 C 296.300781 125.058594 300.84375 123.90625 301.878906 123.796875 C 304.28125 123.546875 306.683594 123.292969 309.082031 123.042969 C 309.695312 122.980469 310.316406 122.910156 310.875 122.660156 C 311.433594 122.40625 311.925781 121.929688 312.039062 121.328125 C 312.1875 120.535156 311.628906 119.746094 310.910156 119.386719 C 310.191406 119.023438 309.351562 119.003906 308.546875 119.042969 C 306.460938 119.164062 304.421875 119.554688 302.460938 120.28125 Z M 283.363281 106.167969 C 283.511719 108.699219 283.574219 112.09375 284.234375 114.914062 C 284.457031 115.871094 285.796875 115.929688 286.09375 114.992188 C 286.875 112.535156 288.085938 108.964844 290.472656 104.882812 C 293.234375 100.160156 297.175781 95.945312 298.253906 90.582031 C 298.769531 88.035156 298.550781 85.085938 296.679688 83.285156 C 295.007812 81.675781 292.324219 81.410156 290.183594 82.296875 C 288.042969 83.179688 286.421875 85.054688 285.433594 87.152344 C 284.363281 89.414062 283.957031 91.933594 283.667969 94.410156 C 283.207031 98.3125 283.128906 102.246094 283.363281 106.167969 Z M 283.363281 106.167969 "/></g></g></g><g clip-rule="nonzero" clip-path="url(#382d11c7ed)"><g clip-rule="nonzero" clip-path="url(#373d708a49)"><path style=" stroke:none;fill-rule:nonzero;fill:#ea5b62;fill-opacity:1;" d="M 54.285156 114.945312 L 158.5 114.945312 L 158.5 219.160156 L 54.285156 219.160156 Z M 54.285156 114.945312 "/></g></g><g clip-rule="nonzero" clip-path="url(#08bb44e37e)"><path style=" stroke:none;fill-rule:nonzero;fill:#ffffff;fill-opacity:1;" d="M 106.320312 220.113281 C 108.164062 220.113281 110 220.023438 111.832031 219.84375 C 113.667969 219.660156 115.488281 219.390625 117.292969 219.03125 C 119.101562 218.671875 120.886719 218.226562 122.648438 217.691406 C 124.410156 217.15625 126.144531 216.535156 127.847656 215.832031 C 129.546875 215.125 131.210938 214.339844 132.835938 213.472656 C 134.460938 212.601562 136.039062 211.65625 137.570312 210.632812 C 139.101562 209.609375 140.582031 208.515625 142.003906 207.34375 C 143.429688 206.175781 144.792969 204.941406 146.09375 203.636719 C 147.398438 202.335938 148.632812 200.972656 149.800781 199.546875 C 150.972656 198.125 152.066406 196.644531 153.089844 195.113281 C 154.113281 193.582031 155.058594 192.003906 155.929688 190.378906 C 156.796875 188.753906 157.582031 187.089844 158.289062 185.390625 C 158.992188 183.6875 159.613281 181.953125 160.148438 180.191406 C 160.683594 178.429688 161.128906 176.644531 161.488281 174.835938 C 161.847656 173.03125 162.117188 171.210938 162.300781 169.375 C 162.480469 167.542969 162.570312 165.707031 162.570312 163.863281 C 162.570312 162.019531 162.480469 160.183594 162.300781 158.351562 C 162.117188 156.515625 161.847656 154.695312 161.488281 152.890625 C 161.128906 151.082031 160.683594 149.296875 160.148438 147.535156 C 159.613281 145.773438 158.992188 144.039062 158.289062 142.335938 C 157.582031 140.636719 156.796875 138.972656 155.929688 137.347656 C 155.058594 135.722656 154.113281 134.144531 153.089844 132.613281 C 152.066406 131.082031 150.972656 129.601562 149.800781 128.179688 C 148.632812 126.753906 147.398438 125.390625 146.09375 124.089844 C 144.792969 122.785156 143.429688 121.550781 142.003906 120.382812 C 140.582031 119.210938 139.101562 118.117188 137.570312 117.09375 C 136.039062 116.070312 134.460938 115.125 132.835938 114.253906 C 131.210938 113.386719 129.546875 112.601562 127.847656 111.894531 C 126.144531 111.191406 124.410156 110.570312 122.648438 110.035156 C 120.886719 109.5 119.101562 109.054688 117.292969 108.695312 C 115.488281 108.335938 113.667969 108.066406 111.832031 107.882812 C 110 107.703125 108.164062 107.613281 106.320312 107.613281 C 104.476562 107.613281 102.640625 107.703125 100.808594 107.882812 C 98.972656 108.066406 97.152344 108.335938 95.347656 108.695312 C 93.539062 109.054688 91.753906 109.5 89.992188 110.035156 C 88.230469 110.570312 86.496094 111.191406 84.792969 111.894531 C 83.09375 112.601562 81.429688 113.386719 79.804688 114.253906 C 78.179688 115.125 76.601562 116.070312 75.070312 117.09375 C 73.539062 118.117188 72.058594 119.210938 70.636719 120.382812 C 69.210938 121.550781 67.847656 122.785156 66.546875 124.089844 C 65.242188 125.390625 64.007812 126.753906 62.839844 128.179688 C 61.671875 129.601562 60.574219 131.082031 59.550781 132.613281 C 58.527344 134.144531 57.582031 135.722656 56.710938 137.347656 C 55.84375 138.972656 55.058594 140.636719 54.351562 142.335938 C 53.648438 144.039062 53.027344 145.773438 52.492188 147.535156 C 51.957031 149.296875 51.511719 151.082031 51.152344 152.890625 C 50.792969 154.695312 50.523438 156.515625 50.339844 158.351562 C 50.160156 160.183594 50.070312 162.019531 50.070312 163.863281 C 50.070312 165.707031 50.160156 167.542969 50.339844 169.375 C 50.523438 171.210938 50.792969 173.03125 51.152344 174.835938 C 51.511719 176.644531 51.957031 178.429688 52.492188 180.191406 C 53.027344 181.953125 53.648438 183.6875 54.351562 185.390625 C 55.058594 187.089844 55.84375 188.753906 56.710938 190.378906 C 57.582031 192.003906 58.527344 193.582031 59.550781 195.113281 C 60.574219 196.644531 61.671875 198.125 62.839844 199.546875 C 64.007812 200.972656 65.242188 202.335938 66.546875 203.636719 C 67.847656 204.941406 69.210938 206.175781 70.636719 207.34375 C 72.058594 208.515625 73.539062 209.609375 75.070312 210.632812 C 76.601562 211.65625 78.179688 212.601562 79.804688 213.472656 C 81.429688 214.339844 83.09375 215.125 84.792969 215.832031 C 86.496094 216.535156 88.230469 217.15625 89.992188 217.691406 C 91.753906 218.226562 93.539062 218.671875 95.347656 219.03125 C 97.152344 219.390625 98.972656 219.660156 100.808594 219.84375 C 102.640625 220.023438 104.476562 220.113281 106.320312 220.113281 Z M 106.320312 111.363281 C 108.039062 111.363281 109.753906 111.449219 111.464844 111.617188 C 113.175781 111.785156 114.875 112.035156 116.5625 112.371094 C 118.25 112.707031 119.914062 113.125 121.558594 113.625 C 123.207031 114.121094 124.824219 114.703125 126.410156 115.359375 C 128 116.015625 129.550781 116.75 131.070312 117.5625 C 132.585938 118.371094 134.058594 119.253906 135.488281 120.210938 C 136.917969 121.167969 138.296875 122.1875 139.625 123.28125 C 140.957031 124.371094 142.226562 125.523438 143.445312 126.738281 C 144.660156 127.957031 145.8125 129.226562 146.902344 130.558594 C 147.996094 131.886719 149.015625 133.265625 149.972656 134.695312 C 150.929688 136.125 151.8125 137.597656 152.621094 139.113281 C 153.433594 140.632812 154.167969 142.183594 154.824219 143.773438 C 155.480469 145.359375 156.0625 146.976562 156.558594 148.625 C 157.058594 150.269531 157.476562 151.933594 157.8125 153.621094 C 158.148438 155.308594 158.398438 157.007812 158.566406 158.71875 C 158.734375 160.429688 158.820312 162.144531 158.820312 163.863281 C 158.820312 165.582031 158.734375 167.296875 158.566406 169.007812 C 158.398438 170.71875 158.148438 172.417969 157.8125 174.105469 C 157.476562 175.792969 157.058594 177.457031 156.558594 179.101562 C 156.0625 180.75 155.480469 182.367188 154.824219 183.953125 C 154.167969 185.542969 153.433594 187.09375 152.621094 188.613281 C 151.8125 190.128906 150.929688 191.601562 149.972656 193.03125 C 149.015625 194.460938 147.996094 195.839844 146.902344 197.167969 C 145.8125 198.496094 144.660156 199.769531 143.445312 200.984375 C 142.226562 202.203125 140.957031 203.355469 139.625 204.445312 C 138.296875 205.535156 136.917969 206.558594 135.488281 207.515625 C 134.058594 208.46875 132.585938 209.355469 131.070312 210.164062 C 129.550781 210.972656 128 211.707031 126.410156 212.367188 C 124.824219 213.023438 123.207031 213.601562 121.558594 214.101562 C 119.914062 214.601562 118.25 215.019531 116.5625 215.355469 C 114.875 215.691406 113.175781 215.941406 111.464844 216.109375 C 109.753906 216.277344 108.039062 216.363281 106.320312 216.363281 C 104.601562 216.363281 102.886719 216.277344 101.175781 216.109375 C 99.464844 215.941406 97.765625 215.691406 96.078125 215.355469 C 94.390625 215.019531 92.726562 214.601562 91.082031 214.101562 C 89.433594 213.601562 87.816406 213.023438 86.230469 212.367188 C 84.640625 211.707031 83.089844 210.972656 81.570312 210.164062 C 80.054688 209.355469 78.582031 208.46875 77.152344 207.515625 C 75.722656 206.558594 74.34375 205.535156 73.015625 204.445312 C 71.6875 203.355469 70.414062 202.203125 69.199219 200.984375 C 67.980469 199.769531 66.828125 198.496094 65.738281 197.167969 C 64.648438 195.839844 63.625 194.460938 62.667969 193.03125 C 61.714844 191.601562 60.832031 190.128906 60.019531 188.613281 C 59.210938 187.09375 58.476562 185.542969 57.816406 183.953125 C 57.160156 182.367188 56.582031 180.75 56.082031 179.101562 C 55.582031 177.457031 55.164062 175.792969 54.828125 174.105469 C 54.492188 172.417969 54.242188 170.71875 54.074219 169.007812 C 53.90625 167.296875 53.820312 165.582031 53.820312 163.863281 C 53.820312 162.144531 53.90625 160.429688 54.074219 158.71875 C 54.242188 157.007812 54.492188 155.308594 54.828125 153.621094 C 55.164062 151.933594 55.582031 150.269531 56.082031 148.625 C 56.582031 146.976562 57.160156 145.359375 57.816406 143.773438 C 58.476562 142.183594 59.210938 140.632812 60.019531 139.113281 C 60.832031 137.597656 61.714844 136.125 62.667969 134.695312 C 63.625 133.265625 64.648438 131.886719 65.738281 130.558594 C 66.828125 129.226562 67.980469 127.957031 69.199219 126.738281 C 70.414062 125.523438 71.6875 124.371094 73.015625 123.28125 C 74.34375 122.1875 75.722656 121.167969 77.152344 120.210938 C 78.582031 119.253906 80.054688 118.371094 81.570312 117.5625 C 83.089844 116.75 84.640625 116.015625 86.230469 115.359375 C 87.816406 114.703125 89.433594 114.121094 91.082031 113.625 C 92.726562 113.125 94.390625 112.707031 96.078125 112.371094 C 97.765625 112.035156 99.464844 111.785156 101.175781 111.617188 C 102.886719 111.449219 104.601562 111.363281 106.320312 111.363281 Z M 106.320312 111.363281 "/></g><path style=" stroke:none;fill-rule:nonzero;fill:#ffffff;fill-opacity:1;" d="M 81.15625 201.605469 C 81.480469 201.832031 81.835938 201.945312 82.226562 201.945312 C 82.882812 201.9375 83.394531 201.664062 83.765625 201.121094 C 83.90625 200.914062 84 200.691406 84.050781 200.445312 C 84.101562 200.203125 84.105469 199.960938 84.058594 199.714844 C 84.015625 199.472656 83.921875 199.246094 83.789062 199.035156 C 83.652344 198.828125 83.480469 198.652344 83.277344 198.511719 C 82.660156 198.09375 82.058594 197.65625 81.46875 197.199219 C 80.878906 196.746094 80.300781 196.277344 79.734375 195.792969 C 79.167969 195.308594 78.617188 194.808594 78.078125 194.292969 C 77.539062 193.777344 77.015625 193.25 76.503906 192.703125 C 75.996094 192.160156 75.5 191.605469 75.023438 191.035156 C 74.542969 190.464844 74.078125 189.882812 73.628906 189.285156 C 73.183594 188.691406 72.75 188.082031 72.335938 187.464844 C 71.921875 186.847656 71.523438 186.214844 71.140625 185.578125 C 70.761719 184.9375 70.398438 184.285156 70.050781 183.625 C 69.707031 182.964844 69.378906 182.296875 69.070312 181.621094 C 68.757812 180.941406 68.46875 180.253906 68.195312 179.5625 C 67.921875 178.867188 67.671875 178.167969 67.4375 177.460938 C 67.203125 176.753906 66.984375 176.039062 66.789062 175.320312 C 66.59375 174.601562 66.417969 173.878906 66.261719 173.152344 C 66.105469 172.421875 65.96875 171.691406 65.851562 170.953125 C 65.734375 170.21875 65.636719 169.480469 65.5625 168.738281 C 65.484375 168 65.425781 167.253906 65.390625 166.511719 C 65.355469 165.765625 65.335938 165.023438 65.339844 164.277344 C 65.34375 163.53125 65.367188 162.789062 65.414062 162.042969 C 65.457031 161.300781 65.519531 160.558594 65.605469 159.816406 C 65.691406 159.078125 65.792969 158.339844 65.917969 157.605469 C 66.042969 156.871094 66.1875 156.140625 66.351562 155.414062 C 66.515625 154.6875 66.699219 153.964844 66.902344 153.246094 C 67.105469 152.53125 67.324219 151.820312 67.566406 151.117188 C 67.808594 150.410156 68.070312 149.710938 68.347656 149.023438 C 68.628906 148.332031 68.925781 147.648438 69.242188 146.972656 C 69.558594 146.300781 69.890625 145.632812 70.246094 144.976562 C 70.597656 144.320312 70.96875 143.675781 71.355469 143.039062 C 71.742188 142.402344 72.144531 141.777344 72.566406 141.160156 C 72.988281 140.546875 73.425781 139.945312 73.878906 139.351562 C 74.332031 138.761719 74.804688 138.183594 75.289062 137.617188 C 75.773438 137.054688 76.273438 136.5 76.789062 135.964844 C 76.941406 135.78125 77.050781 135.578125 77.125 135.351562 C 77.199219 135.128906 77.230469 134.898438 77.214844 134.660156 C 77.199219 134.425781 77.144531 134.199219 77.046875 133.984375 C 76.945312 133.769531 76.8125 133.578125 76.640625 133.417969 C 76.46875 133.253906 76.273438 133.125 76.054688 133.035156 C 75.835938 132.945312 75.609375 132.898438 75.371094 132.894531 C 75.136719 132.890625 74.90625 132.929688 74.683594 133.015625 C 74.464844 133.097656 74.265625 133.21875 74.089844 133.375 C 73.527344 133.960938 72.980469 134.566406 72.453125 135.179688 C 71.921875 135.796875 71.410156 136.429688 70.914062 137.074219 C 70.421875 137.71875 69.941406 138.375 69.484375 139.046875 C 69.023438 139.714844 68.582031 140.398438 68.160156 141.09375 C 67.738281 141.785156 67.335938 142.492188 66.949219 143.207031 C 66.566406 143.921875 66.203125 144.648438 65.855469 145.386719 C 65.511719 146.121094 65.1875 146.867188 64.882812 147.621094 C 64.578125 148.371094 64.292969 149.132812 64.03125 149.902344 C 63.765625 150.671875 63.523438 151.445312 63.300781 152.230469 C 63.082031 153.011719 62.878906 153.796875 62.703125 154.589844 C 62.523438 155.382812 62.367188 156.179688 62.230469 156.984375 C 62.09375 157.785156 61.980469 158.589844 61.890625 159.394531 C 61.796875 160.203125 61.726562 161.011719 61.679688 161.824219 C 61.628906 162.636719 61.605469 163.445312 61.601562 164.257812 C 61.597656 165.074219 61.613281 165.882812 61.652344 166.695312 C 61.695312 167.507812 61.753906 168.316406 61.839844 169.125 C 61.921875 169.933594 62.027344 170.742188 62.15625 171.542969 C 62.285156 172.347656 62.433594 173.144531 62.601562 173.9375 C 62.773438 174.734375 62.964844 175.523438 63.179688 176.308594 C 63.394531 177.089844 63.628906 177.871094 63.882812 178.640625 C 64.136719 179.414062 64.414062 180.175781 64.710938 180.933594 C 65.007812 181.6875 65.324219 182.4375 65.664062 183.175781 C 66 183.914062 66.359375 184.644531 66.734375 185.367188 C 67.113281 186.085938 67.507812 186.792969 67.921875 187.492188 C 68.339844 188.191406 68.773438 188.878906 69.226562 189.554688 C 69.679688 190.226562 70.148438 190.890625 70.636719 191.539062 C 71.125 192.1875 71.632812 192.824219 72.15625 193.449219 C 72.679688 194.070312 73.21875 194.675781 73.773438 195.269531 C 74.328125 195.863281 74.902344 196.441406 75.488281 197 C 76.074219 197.5625 76.675781 198.109375 77.292969 198.636719 C 77.910156 199.167969 78.542969 199.679688 79.1875 200.175781 C 79.832031 200.671875 80.488281 201.148438 81.15625 201.605469 Z M 81.15625 201.605469 "/><path style=" stroke:none;fill-rule:nonzero;fill:#ffffff;fill-opacity:1;" d="M 97.507812 206.6875 C 97.464844 206.933594 97.46875 207.179688 97.523438 207.421875 C 97.578125 207.667969 97.679688 207.890625 97.824219 208.097656 C 97.96875 208.300781 98.144531 208.46875 98.359375 208.601562 C 98.570312 208.734375 98.796875 208.820312 99.046875 208.863281 C 101.527344 209.273438 104.027344 209.480469 106.546875 209.480469 C 109.480469 209.484375 112.386719 209.203125 115.265625 208.636719 C 115.511719 208.589844 115.742188 208.496094 115.953125 208.359375 C 116.167969 208.21875 116.34375 208.046875 116.484375 207.835938 C 116.628906 207.628906 116.726562 207.398438 116.777344 207.152344 C 116.828125 206.902344 116.832031 206.65625 116.78125 206.40625 C 116.734375 206.160156 116.644531 205.929688 116.503906 205.714844 C 116.363281 205.503906 116.191406 205.328125 115.980469 205.183594 C 115.773438 205.042969 115.542969 204.945312 115.296875 204.894531 C 115.046875 204.84375 114.800781 204.839844 114.550781 204.886719 C 109.5625 205.855469 104.5625 205.917969 99.550781 205.074219 C 99.308594 205.050781 99.074219 205.074219 98.839844 205.140625 C 98.605469 205.210938 98.394531 205.320312 98.203125 205.46875 C 98.015625 205.621094 97.859375 205.800781 97.738281 206.011719 C 97.617188 206.222656 97.539062 206.449219 97.507812 206.6875 Z M 97.507812 206.6875 "/><path style=" stroke:none;fill-rule:nonzero;fill:#ffffff;fill-opacity:1;" d="M 130.808594 197.894531 C 130.441406 198.121094 130.179688 198.433594 130.03125 198.839844 C 129.882812 199.242188 129.871094 199.652344 130.003906 200.0625 C 130.132812 200.472656 130.378906 200.800781 130.734375 201.042969 C 131.089844 201.285156 131.484375 201.390625 131.914062 201.363281 C 132.316406 201.359375 132.675781 201.242188 133 201.007812 C 134.265625 200.09375 135.480469 199.113281 136.640625 198.074219 C 137.804688 197.03125 138.910156 195.933594 139.957031 194.777344 C 141.003906 193.621094 141.992188 192.414062 142.914062 191.15625 C 143.835938 189.898438 144.691406 188.597656 145.476562 187.25 C 146.265625 185.902344 146.980469 184.515625 147.621094 183.097656 C 148.265625 181.675781 148.832031 180.222656 149.324219 178.742188 C 149.816406 177.261719 150.230469 175.757812 150.566406 174.234375 C 150.902344 172.710938 151.160156 171.175781 151.335938 169.625 C 151.511719 168.074219 151.605469 166.519531 151.621094 164.957031 C 151.636719 163.398438 151.566406 161.84375 151.421875 160.289062 C 151.273438 158.734375 151.042969 157.195312 150.738281 155.664062 C 150.429688 154.136719 150.042969 152.625 149.578125 151.136719 C 149.113281 149.648438 148.570312 148.183594 147.953125 146.753906 C 147.335938 145.320312 146.648438 143.921875 145.882812 142.5625 C 145.121094 141.199219 144.289062 139.882812 143.390625 138.605469 C 142.492188 137.332031 141.527344 136.105469 140.5 134.933594 C 140.347656 134.71875 140.15625 134.542969 139.929688 134.410156 C 139.703125 134.277344 139.457031 134.195312 139.195312 134.167969 C 138.933594 134.136719 138.675781 134.160156 138.425781 134.238281 C 138.171875 134.320312 137.945312 134.445312 137.75 134.617188 C 137.550781 134.792969 137.394531 134.996094 137.285156 135.234375 C 137.171875 135.476562 137.113281 135.726562 137.105469 135.988281 C 137.101562 136.253906 137.148438 136.507812 137.25 136.75 C 137.351562 136.992188 137.5 137.207031 137.6875 137.386719 C 138.632812 138.464844 139.515625 139.585938 140.339844 140.753906 C 141.167969 141.921875 141.929688 143.132812 142.628906 144.378906 C 143.328125 145.625 143.960938 146.90625 144.527344 148.222656 C 145.09375 149.535156 145.59375 150.875 146.019531 152.238281 C 146.445312 153.605469 146.800781 154.988281 147.085938 156.390625 C 147.367188 157.792969 147.578125 159.207031 147.714844 160.628906 C 147.851562 162.054688 147.914062 163.480469 147.902344 164.910156 C 147.886719 166.34375 147.800781 167.769531 147.640625 169.191406 C 147.480469 170.609375 147.246094 172.019531 146.941406 173.417969 C 146.632812 174.816406 146.253906 176.191406 145.804688 177.550781 C 145.351562 178.90625 144.832031 180.238281 144.242188 181.542969 C 143.65625 182.847656 143 184.117188 142.277344 185.351562 C 141.558594 186.585938 140.773438 187.78125 139.929688 188.933594 C 139.082031 190.089844 138.179688 191.195312 137.21875 192.257812 C 136.261719 193.316406 135.246094 194.324219 134.179688 195.277344 C 133.117188 196.234375 132.003906 197.128906 130.84375 197.96875 Z M 130.808594 197.894531 "/><path style=" stroke:none;fill-rule:nonzero;fill:#ffffff;fill-opacity:1;" d="M 85.695312 152.613281 L 85.695312 205.113281 C 85.695312 205.484375 85.730469 205.847656 85.804688 206.210938 C 85.875 206.574219 85.980469 206.925781 86.125 207.265625 C 86.265625 207.605469 86.4375 207.929688 86.644531 208.238281 C 86.847656 208.546875 87.082031 208.828125 87.34375 209.089844 C 87.605469 209.351562 87.886719 209.585938 88.195312 209.789062 C 88.503906 209.996094 88.828125 210.167969 89.167969 210.308594 C 89.507812 210.453125 89.859375 210.558594 90.222656 210.628906 C 90.585938 210.703125 90.949219 210.738281 91.320312 210.738281 C 91.691406 210.738281 92.054688 210.703125 92.417969 210.628906 C 92.78125 210.558594 93.132812 210.453125 93.472656 210.308594 C 93.8125 210.167969 94.136719 209.996094 94.445312 209.789062 C 94.753906 209.585938 95.035156 209.351562 95.296875 209.089844 C 95.558594 208.828125 95.792969 208.546875 95.996094 208.238281 C 96.203125 207.929688 96.375 207.605469 96.515625 207.265625 C 96.660156 206.925781 96.765625 206.574219 96.835938 206.210938 C 96.910156 205.847656 96.945312 205.484375 96.945312 205.113281 L 96.945312 152.707031 C 97.792969 152.21875 98.566406 151.625 99.261719 150.933594 C 99.953125 150.242188 100.546875 149.472656 101.042969 148.625 C 101.535156 147.78125 101.910156 146.882812 102.171875 145.9375 C 102.429688 144.992188 102.5625 144.03125 102.570312 143.050781 L 102.570312 122.875 C 102.570312 122.628906 102.523438 122.386719 102.429688 122.15625 C 102.332031 121.929688 102.195312 121.726562 102.019531 121.550781 C 101.84375 121.375 101.644531 121.238281 101.414062 121.144531 C 101.183594 121.046875 100.945312 121 100.695312 121 C 100.445312 121 100.207031 121.046875 99.976562 121.144531 C 99.75 121.238281 99.546875 121.375 99.371094 121.550781 C 99.195312 121.726562 99.058594 121.929688 98.964844 122.15625 C 98.867188 122.386719 98.820312 122.628906 98.820312 122.875 L 98.820312 143.050781 C 98.8125 143.773438 98.703125 144.484375 98.492188 145.175781 C 98.28125 145.867188 97.976562 146.515625 97.578125 147.121094 C 97.179688 147.722656 96.699219 148.257812 96.148438 148.722656 C 95.59375 149.191406 94.984375 149.566406 94.320312 149.855469 L 94.152344 149.96875 C 94.003906 150.054688 93.867188 150.15625 93.738281 150.269531 C 93.664062 150.363281 93.59375 150.464844 93.53125 150.570312 C 93.453125 150.660156 93.390625 150.757812 93.34375 150.871094 C 93.28125 151.03125 93.242188 151.199219 93.234375 151.375 C 93.234375 151.375 93.234375 151.507812 93.234375 151.582031 L 93.234375 205.113281 C 93.234375 205.363281 93.183594 205.601562 93.089844 205.832031 C 92.996094 206.058594 92.859375 206.261719 92.683594 206.4375 C 92.507812 206.613281 92.304688 206.75 92.074219 206.84375 C 91.847656 206.941406 91.605469 206.988281 91.359375 206.988281 C 91.109375 206.988281 90.871094 206.941406 90.640625 206.84375 C 90.410156 206.75 90.207031 206.613281 90.03125 206.4375 C 89.855469 206.261719 89.722656 206.058594 89.625 205.832031 C 89.53125 205.601562 89.484375 205.363281 89.484375 205.113281 L 89.484375 151.601562 C 89.492188 151.542969 89.492188 151.488281 89.484375 151.433594 C 89.472656 151.246094 89.4375 151.0625 89.371094 150.886719 C 89.320312 150.78125 89.257812 150.679688 89.183594 150.589844 C 89.125 150.480469 89.054688 150.378906 88.976562 150.289062 C 88.832031 150.148438 88.667969 150.039062 88.488281 149.949219 L 88.394531 149.949219 C 87.523438 149.585938 86.753906 149.066406 86.089844 148.394531 C 85.359375 147.699219 84.792969 146.886719 84.398438 145.957031 C 84.007812 145.027344 83.8125 144.058594 83.820312 143.050781 L 83.820312 122.875 C 83.820312 122.628906 83.773438 122.386719 83.679688 122.15625 C 83.582031 121.929688 83.445312 121.726562 83.269531 121.550781 C 83.09375 121.375 82.894531 121.238281 82.664062 121.144531 C 82.433594 121.046875 82.195312 121 81.945312 121 C 81.695312 121 81.457031 121.046875 81.226562 121.144531 C 81 121.238281 80.796875 121.375 80.621094 121.550781 C 80.445312 121.726562 80.308594 121.929688 80.214844 122.15625 C 80.117188 122.386719 80.070312 122.628906 80.070312 122.875 L 80.070312 143.050781 C 80.066406 144.539062 80.351562 145.972656 80.925781 147.347656 C 81.496094 148.722656 82.3125 149.933594 83.371094 150.980469 C 84.085938 151.613281 84.859375 152.15625 85.695312 152.613281 Z M 85.695312 152.613281 "/><path style=" stroke:none;fill-rule:nonzero;fill:#ffffff;fill-opacity:1;" d="M 94.546875 146.988281 C 94.792969 146.988281 95.035156 146.941406 95.261719 146.84375 C 95.492188 146.75 95.695312 146.613281 95.871094 146.4375 C 96.046875 146.261719 96.183594 146.058594 96.277344 145.832031 C 96.371094 145.601562 96.421875 145.363281 96.421875 145.113281 L 96.421875 122.613281 C 96.421875 122.363281 96.371094 122.125 96.277344 121.894531 C 96.183594 121.664062 96.046875 121.464844 95.871094 121.289062 C 95.695312 121.113281 95.492188 120.976562 95.261719 120.882812 C 95.035156 120.785156 94.792969 120.738281 94.546875 120.738281 C 94.296875 120.738281 94.058594 120.785156 93.828125 120.882812 C 93.597656 120.976562 93.394531 121.113281 93.21875 121.289062 C 93.042969 121.464844 92.910156 121.664062 92.8125 121.894531 C 92.71875 122.125 92.671875 122.363281 92.671875 122.613281 L 92.671875 145.113281 C 92.671875 145.363281 92.71875 145.601562 92.8125 145.832031 C 92.910156 146.058594 93.042969 146.261719 93.21875 146.4375 C 93.394531 146.613281 93.597656 146.75 93.828125 146.84375 C 94.058594 146.941406 94.296875 146.988281 94.546875 146.988281 Z M 94.546875 146.988281 "/><path style=" stroke:none;fill-rule:nonzero;fill:#ffffff;fill-opacity:1;" d="M 88.113281 146.988281 C 88.363281 146.988281 88.601562 146.941406 88.832031 146.84375 C 89.0625 146.75 89.265625 146.613281 89.441406 146.4375 C 89.617188 146.261719 89.75 146.058594 89.847656 145.832031 C 89.941406 145.601562 89.988281 145.363281 89.988281 145.113281 L 89.988281 122.613281 C 89.988281 122.363281 89.941406 122.125 89.847656 121.894531 C 89.75 121.664062 89.617188 121.464844 89.441406 121.289062 C 89.265625 121.113281 89.0625 120.976562 88.832031 120.882812 C 88.601562 120.785156 88.363281 120.738281 88.113281 120.738281 C 87.867188 120.738281 87.625 120.785156 87.398438 120.882812 C 87.167969 120.976562 86.964844 121.113281 86.789062 121.289062 C 86.613281 121.464844 86.476562 121.664062 86.382812 121.894531 C 86.285156 122.125 86.238281 122.363281 86.238281 122.613281 L 86.238281 145.113281 C 86.238281 145.363281 86.285156 145.601562 86.382812 145.832031 C 86.476562 146.058594 86.613281 146.261719 86.789062 146.4375 C 86.964844 146.613281 87.167969 146.75 87.398438 146.84375 C 87.625 146.941406 87.867188 146.988281 88.113281 146.988281 Z M 88.113281 146.988281 "/><path style=" stroke:none;fill-rule:nonzero;fill:#ffffff;fill-opacity:1;" d="M 117.570312 153.175781 L 117.570312 204.871094 C 117.570312 205.238281 117.605469 205.605469 117.679688 205.96875 C 117.75 206.328125 117.855469 206.679688 118 207.023438 C 118.140625 207.363281 118.3125 207.6875 118.519531 207.996094 C 118.722656 208.300781 118.957031 208.585938 119.21875 208.847656 C 119.480469 209.109375 119.761719 209.339844 120.070312 209.546875 C 120.378906 209.75 120.703125 209.925781 121.042969 210.066406 C 121.382812 210.207031 121.734375 210.3125 122.097656 210.386719 C 122.460938 210.457031 122.824219 210.496094 123.195312 210.496094 C 123.566406 210.496094 123.929688 210.457031 124.292969 210.386719 C 124.65625 210.3125 125.007812 210.207031 125.347656 210.066406 C 125.6875 209.925781 126.011719 209.75 126.320312 209.546875 C 126.628906 209.339844 126.910156 209.109375 127.171875 208.847656 C 127.433594 208.585938 127.667969 208.300781 127.871094 207.996094 C 128.078125 207.6875 128.25 207.363281 128.390625 207.023438 C 128.535156 206.679688 128.640625 206.328125 128.710938 205.96875 C 128.785156 205.605469 128.820312 205.238281 128.820312 204.871094 L 128.820312 153.175781 C 133.640625 150.738281 135.382812 145.113281 135.382812 140.613281 C 135.382812 131.011719 130.488281 120.738281 123.195312 120.738281 C 115.902344 120.738281 111.007812 131.011719 111.007812 140.613281 C 111.007812 145.113281 112.75 150.738281 117.570312 153.175781 Z M 123.195312 124.488281 C 127.601562 124.488281 131.632812 132.175781 131.632812 140.613281 C 131.632812 144.363281 130.226562 148.75 126.289062 150.195312 C 125.921875 150.332031 125.625 150.5625 125.402344 150.882812 C 125.179688 151.207031 125.070312 151.566406 125.070312 151.957031 L 125.070312 204.871094 C 125.070312 205.117188 125.023438 205.355469 124.929688 205.585938 C 124.832031 205.816406 124.695312 206.019531 124.519531 206.195312 C 124.34375 206.371094 124.144531 206.507812 123.914062 206.601562 C 123.683594 206.695312 123.445312 206.746094 123.195312 206.746094 C 122.945312 206.746094 122.707031 206.695312 122.476562 206.601562 C 122.25 206.507812 122.046875 206.371094 121.871094 206.195312 C 121.695312 206.019531 121.558594 205.816406 121.464844 205.585938 C 121.367188 205.355469 121.320312 205.117188 121.320312 204.871094 L 121.320312 151.957031 C 121.320312 151.566406 121.210938 151.207031 120.988281 150.882812 C 120.765625 150.5625 120.46875 150.332031 120.101562 150.195312 C 116.164062 148.75 114.757812 144.289062 114.757812 140.613281 C 114.757812 132.175781 118.789062 124.488281 123.195312 124.488281 Z M 123.195312 124.488281 "/><g clip-rule="nonzero" clip-path="url(#5c73faca18)"><g clip-rule="nonzero" clip-path="url(#5c6e55bc18)"><g clip-rule="nonzero" clip-path="url(#4bf86d00d1)"><path style=" stroke:none;fill-rule:nonzero;fill:#ea5b62;fill-opacity:1;" d="M 90.695312 271.785156 C 87.898438 272.960938 84.714844 273.703125 81.84375 272.71875 C 78.976562 271.730469 76.742188 268.488281 77.761719 265.628906 C 78.316406 264.078125 79.6875 262.933594 81.195312 262.273438 C 82.703125 261.617188 84.359375 261.382812 85.988281 261.15625 C 88.835938 260.757812 91.683594 260.359375 94.53125 259.960938 C 97.148438 259.59375 100.4375 258.550781 103.0625 258.769531 C 106.101562 259.023438 103.320312 261.894531 102.3125 263.121094 C 100.839844 264.902344 99.167969 266.515625 97.332031 267.925781 C 95.347656 269.449219 93.066406 270.9375 90.695312 271.785156 Z M 93.027344 255.601562 C 94.433594 255.515625 98.171875 255.371094 99.140625 254.1875 C 100.292969 252.785156 95.609375 252.589844 94.585938 252.394531 C 92.214844 251.953125 89.839844 251.507812 87.46875 251.0625 C 86.863281 250.949219 86.25 250.835938 85.640625 250.917969 C 85.035156 251 84.425781 251.316406 84.144531 251.859375 C 83.777344 252.574219 84.089844 253.492188 84.675781 254.042969 C 85.257812 254.59375 86.058594 254.855469 86.839844 255.050781 C 88.871094 255.527344 90.9375 255.734375 93.027344 255.601562 Z M 107.292969 274.585938 C 107.875 272.113281 108.78125 268.84375 108.957031 265.953125 C 109.015625 264.972656 107.75 264.53125 107.195312 265.347656 C 105.746094 267.480469 103.566406 270.554688 100.113281 273.785156 C 96.117188 277.519531 91.136719 280.433594 88.566406 285.261719 C 87.347656 287.554688 86.714844 290.445312 87.992188 292.707031 C 89.132812 294.722656 91.628906 295.746094 93.933594 295.511719 C 96.238281 295.273438 98.328125 293.941406 99.875 292.214844 C 101.546875 290.355469 102.65625 288.054688 103.640625 285.761719 C 105.195312 282.15625 106.398438 278.410156 107.292969 274.585938 Z M 107.292969 274.585938 "/></g></g></g></g></svg>