<svg xmlns="http://www.w3.org/2000/svg" xmlns:xlink="http://www.w3.org/1999/xlink" width="500" zoomAndPan="magnify" viewBox="0 0 375 374.999991" height="500" preserveAspectRatio="xMidYMid meet" version="1.2"><defs><clipPath id="25f3ad68ae"><path d="M 283 81 L 315 81 L 315 125 L 283 125 Z M 283 81 "/></clipPath><clipPath id="0fd095f018"><path d="M 280.777344 82.480469 L 312.136719 79.515625 L 316.300781 123.570312 L 284.941406 126.535156 Z M 280.777344 82.480469 "/></clipPath><clipPath id="645f515094"><path d="M 280.777344 82.480469 L 312.136719 79.515625 L 316.300781 123.570312 L 284.941406 126.535156 Z M 280.777344 82.480469 "/></clipPath><clipPath id="3bf302b906"><path d="M 54.285156 114.945312 L 158.5 114.945312 L 158.5 219.160156 L 54.285156 219.160156 Z M 54.285156 114.945312 "/></clipPath><clipPath id="a6e0ad1447"><path d="M 106.390625 114.945312 C 77.613281 114.945312 54.285156 138.273438 54.285156 167.054688 C 54.285156 195.832031 77.613281 219.160156 106.390625 219.160156 C 135.171875 219.160156 158.5 195.832031 158.5 167.054688 C 158.5 138.273438 135.171875 114.945312 106.390625 114.945312 Z M 106.390625 114.945312 "/></clipPath><clipPath id="83077f2310"><path d="M 77 250 L 109 250 L 109 296 L 77 296 Z M 77 250 "/></clipPath><clipPath id="23233c7aea"><path d="M 103.003906 298.019531 L 72.105469 291.898438 L 80.703125 248.492188 L 111.601562 254.613281 Z M 103.003906 298.019531 "/></clipPath><clipPath id="27aec84977"><path d="M 103.003906 298.019531 L 72.105469 291.898438 L 80.703125 248.492188 L 111.601562 254.613281 Z M 103.003906 298.019531 "/></clipPath><clipPath id="dd1000e9c8"><path d="M 50.039062 108.15625 L 165.539062 108.15625 L 165.539062 223.65625 L 50.039062 223.65625 Z M 50.039062 108.15625 "/></clipPath></defs><g id="9ff072ecaa"><g style="fill:#ea5b62;fill-opacity:1;"><g transform="translate(24.325522, 240.829038)"><path style="stroke:none" d="M 81.421875 -157.34375 C 102.347656 -157.34375 120.515625 -149.773438 135.921875 -134.640625 C 151.328125 -119.515625 159.03125 -100.75 159.03125 -78.34375 C 159.03125 -55.9375 151.675781 -36.851562 136.96875 -21.09375 C 122.269531 -5.332031 104.175781 2.546875 82.6875 2.546875 C 61.207031 2.546875 42.9375 -5.226562 27.875 -20.78125 C 12.820312 -36.332031 5.296875 -54.851562 5.296875 -76.34375 C 5.296875 -88.070312 7.414062 -99.0625 11.65625 -109.3125 C 15.90625 -119.5625 21.5625 -128.148438 28.625 -135.078125 C 35.695312 -142.003906 43.828125 -147.445312 53.015625 -151.40625 C 62.203125 -155.363281 71.671875 -157.34375 81.421875 -157.34375 Z M 42.828125 -77.390625 C 42.828125 -64.816406 46.890625 -54.601562 55.015625 -46.75 C 63.148438 -38.90625 72.234375 -34.984375 82.265625 -34.984375 C 92.304688 -34.984375 101.351562 -38.800781 109.40625 -46.4375 C 117.46875 -54.070312 121.5 -64.320312 121.5 -77.1875 C 121.5 -90.050781 117.4375 -100.367188 109.3125 -108.140625 C 101.1875 -115.921875 92.101562 -119.8125 82.0625 -119.8125 C 72.019531 -119.8125 62.96875 -115.882812 54.90625 -108.03125 C 46.851562 -100.1875 42.828125 -89.972656 42.828125 -77.390625 Z M 42.828125 -77.390625 "/></g></g><g style="fill:#ea5b62;fill-opacity:1;"><g transform="translate(179.737894, 240.829038)"><path style="stroke:none" d="M 37 -128.390625 C 34.382812 -127.617188 30.882812 -127.234375 26.5 -127.234375 C 22.125 -127.234375 18.660156 -127.65625 16.109375 -128.5 C 13.566406 -129.34375 11.765625 -130.789062 10.703125 -132.84375 C 9.648438 -134.894531 9.015625 -136.734375 8.796875 -138.359375 C 8.585938 -139.984375 8.484375 -142.421875 8.484375 -145.671875 C 8.484375 -148.921875 8.585938 -151.320312 8.796875 -152.875 C 9.015625 -154.4375 9.617188 -156.207031 10.609375 -158.1875 C 12.585938 -161.863281 18.03125 -163.703125 26.9375 -163.703125 C 35.414062 -163.703125 40.710938 -161.863281 42.828125 -158.1875 C 43.816406 -156.351562 44.414062 -154.65625 44.625 -153.09375 C 44.84375 -151.539062 44.953125 -149.207031 44.953125 -146.09375 L 44.953125 -144.828125 C 44.953125 -141.710938 44.84375 -139.378906 44.625 -137.828125 C 44.414062 -136.273438 43.742188 -134.507812 42.609375 -132.53125 C 41.484375 -130.550781 39.613281 -129.171875 37 -128.390625 Z M 16.4375 -111.109375 C 19.050781 -111.960938 22.546875 -112.390625 26.921875 -112.390625 C 31.304688 -112.390625 34.769531 -111.960938 37.3125 -111.109375 C 39.863281 -110.265625 41.664062 -108.816406 42.71875 -106.765625 C 43.78125 -104.710938 44.414062 -102.875 44.625 -101.25 C 44.84375 -99.625 44.953125 -97.1875 44.953125 -93.9375 L 44.953125 -6.578125 C 44.953125 9.960938 39.226562 23.179688 27.78125 33.078125 C 16.332031 42.972656 3.75 47.921875 -9.96875 47.921875 C -13.21875 47.921875 -15.617188 47.8125 -17.171875 47.59375 C -18.734375 47.382812 -20.503906 46.785156 -22.484375 45.796875 C -26.148438 43.816406 -27.984375 38.65625 -27.984375 30.3125 C -27.984375 21.976562 -26.460938 16.75 -23.421875 14.625 C -20.390625 12.507812 -16.289062 11.453125 -11.125 11.453125 C -5.96875 11.453125 -1.410156 10.035156 2.546875 7.203125 C 6.503906 4.378906 8.484375 -0.707031 8.484375 -8.0625 L 8.484375 -95.421875 C 8.484375 -100.367188 9.15625 -104.007812 10.5 -106.34375 C 11.84375 -108.675781 13.820312 -110.265625 16.4375 -111.109375 Z M 16.4375 -111.109375 "/></g></g><g style="fill:#ea5b62;fill-opacity:1;"><g transform="translate(224.26154, 240.829038)"><path style="stroke:none" d="M 81 -99.875 C 81.851562 -107.789062 87.4375 -111.75 97.75 -111.75 C 103.257812 -111.75 107.359375 -111.320312 110.046875 -110.46875 C 112.734375 -109.625 114.609375 -108.140625 115.671875 -106.015625 C 116.734375 -103.898438 117.367188 -102.03125 117.578125 -100.40625 C 117.785156 -98.78125 117.890625 -96.34375 117.890625 -93.09375 L 117.890625 -18.875 C 117.890625 -15.625 117.785156 -13.1875 117.578125 -11.5625 C 117.367188 -9.9375 116.769531 -8.0625 115.78125 -5.9375 C 113.800781 -2.257812 108.957031 -0.421875 101.25 -0.421875 C 93.550781 -0.421875 88.390625 -1.375 85.765625 -3.28125 C 83.148438 -5.195312 81.632812 -7.988281 81.21875 -11.65625 C 75.988281 -4.164062 67.257812 -0.421875 55.03125 -0.421875 C 42.800781 -0.421875 31.453125 -6.003906 20.984375 -17.171875 C 10.523438 -28.335938 5.296875 -41.304688 5.296875 -56.078125 C 5.296875 -70.859375 10.5625 -83.796875 21.09375 -94.890625 C 31.625 -105.984375 43.179688 -111.53125 55.765625 -111.53125 C 60.578125 -111.53125 64.960938 -110.679688 68.921875 -108.984375 C 72.878906 -107.296875 75.632812 -105.707031 77.1875 -104.21875 C 78.738281 -102.738281 80.007812 -101.289062 81 -99.875 Z M 42.40625 -55.765625 C 42.40625 -51.097656 44.242188 -46.890625 47.921875 -43.140625 C 51.597656 -39.398438 56.050781 -37.53125 61.28125 -37.53125 C 66.507812 -37.53125 70.851562 -39.4375 74.3125 -43.25 C 77.78125 -47.070312 79.515625 -51.28125 79.515625 -55.875 C 79.515625 -60.46875 77.851562 -64.742188 74.53125 -68.703125 C 71.207031 -72.660156 66.753906 -74.640625 61.171875 -74.640625 C 55.585938 -74.640625 51.0625 -72.660156 47.59375 -68.703125 C 44.132812 -64.742188 42.40625 -60.429688 42.40625 -55.765625 Z M 42.40625 -55.765625 "/></g></g><g clip-rule="nonzero" clip-path="url(#25f3ad68ae)"><g clip-rule="nonzero" clip-path="url(#0fd095f018)"><g clip-rule="nonzero" clip-path="url(#645f515094)"><path style=" stroke:none;fill-rule:nonzero;fill:#ea5b62;fill-opacity:1;" d="M 300.066406 104.105469 C 302.414062 102.179688 305.25 100.558594 308.28125 100.683594 C 311.316406 100.808594 314.382812 103.28125 314.222656 106.308594 C 314.132812 107.953125 313.148438 109.445312 311.890625 110.503906 C 310.632812 111.566406 309.113281 112.265625 307.617188 112.949219 C 305 114.144531 302.386719 115.339844 299.769531 116.535156 C 297.367188 117.632812 294.515625 119.574219 291.9375 120.113281 C 288.953125 120.738281 290.796875 117.191406 291.414062 115.730469 C 292.3125 113.601562 293.457031 111.574219 294.808594 109.703125 C 296.277344 107.675781 298.039062 105.597656 300.066406 104.105469 Z M 302.457031 120.277344 C 301.136719 120.765625 297.59375 121.972656 297.003906 123.382812 C 296.300781 125.058594 300.84375 123.90625 301.878906 123.796875 C 304.28125 123.546875 306.683594 123.292969 309.082031 123.042969 C 309.695312 122.980469 310.316406 122.910156 310.875 122.660156 C 311.433594 122.40625 311.925781 121.929688 312.039062 121.328125 C 312.1875 120.535156 311.628906 119.746094 310.910156 119.386719 C 310.191406 119.023438 309.351562 119.003906 308.546875 119.042969 C 306.460938 119.164062 304.421875 119.554688 302.460938 120.28125 Z M 283.363281 106.167969 C 283.511719 108.699219 283.574219 112.09375 284.234375 114.914062 C 284.457031 115.871094 285.796875 115.929688 286.09375 114.992188 C 286.875 112.535156 288.085938 108.964844 290.472656 104.882812 C 293.234375 100.160156 297.175781 95.945312 298.253906 90.582031 C 298.769531 88.035156 298.550781 85.085938 296.679688 83.285156 C 295.007812 81.675781 292.324219 81.410156 290.183594 82.296875 C 288.042969 83.179688 286.421875 85.054688 285.433594 87.152344 C 284.363281 89.414062 283.957031 91.933594 283.667969 94.410156 C 283.207031 98.3125 283.128906 102.246094 283.363281 106.167969 Z M 283.363281 106.167969 "/></g></g></g><g clip-rule="nonzero" clip-path="url(#3bf302b906)"><g clip-rule="nonzero" clip-path="url(#a6e0ad1447)"><path style=" stroke:none;fill-rule:nonzero;fill:#ea5b62;fill-opacity:1;" d="M 54.285156 114.945312 L 158.5 114.945312 L 158.5 219.160156 L 54.285156 219.160156 Z M 54.285156 114.945312 "/></g></g><g clip-rule="nonzero" clip-path="url(#83077f2310)"><g clip-rule="nonzero" clip-path="url(#23233c7aea)"><g clip-rule="nonzero" clip-path="url(#27aec84977)"><path style=" stroke:none;fill-rule:nonzero;fill:#ea5b62;fill-opacity:1;" d="M 90.695312 271.785156 C 87.898438 272.960938 84.714844 273.703125 81.84375 272.71875 C 78.976562 271.730469 76.742188 268.488281 77.761719 265.628906 C 78.316406 264.078125 79.6875 262.933594 81.195312 262.273438 C 82.703125 261.617188 84.359375 261.382812 85.988281 261.15625 C 88.835938 260.757812 91.683594 260.359375 94.53125 259.960938 C 97.148438 259.59375 100.4375 258.550781 103.0625 258.769531 C 106.101562 259.023438 103.320312 261.894531 102.3125 263.121094 C 100.839844 264.902344 99.167969 266.515625 97.332031 267.925781 C 95.347656 269.449219 93.066406 270.9375 90.695312 271.785156 Z M 93.027344 255.601562 C 94.433594 255.515625 98.171875 255.371094 99.140625 254.1875 C 100.292969 252.785156 95.609375 252.589844 94.585938 252.394531 C 92.214844 251.953125 89.839844 251.507812 87.46875 251.0625 C 86.863281 250.949219 86.25 250.835938 85.640625 250.917969 C 85.035156 251 84.425781 251.316406 84.144531 251.859375 C 83.777344 252.574219 84.089844 253.492188 84.675781 254.042969 C 85.257812 254.59375 86.058594 254.855469 86.839844 255.050781 C 88.871094 255.527344 90.9375 255.734375 93.027344 255.601562 Z M 107.292969 274.585938 C 107.875 272.113281 108.78125 268.84375 108.957031 265.953125 C 109.015625 264.972656 107.75 264.53125 107.195312 265.347656 C 105.746094 267.480469 103.566406 270.554688 100.113281 273.785156 C 96.117188 277.519531 91.136719 280.433594 88.566406 285.261719 C 87.347656 287.554688 86.714844 290.445312 87.992188 292.707031 C 89.132812 294.722656 91.628906 295.746094 93.933594 295.511719 C 96.238281 295.273438 98.328125 293.941406 99.875 292.214844 C 101.546875 290.355469 102.65625 288.054688 103.640625 285.761719 C 105.195312 282.15625 106.398438 278.410156 107.292969 274.585938 Z M 107.292969 274.585938 "/></g></g></g><path style=" stroke:none;fill-rule:nonzero;fill:#ffffff;fill-opacity:1;" d="M 89.777344 196.335938 C 89.777344 196.664062 89.714844 196.976562 89.589844 197.277344 C 89.46875 197.582031 89.289062 197.847656 89.058594 198.078125 C 88.828125 198.308594 88.5625 198.484375 88.261719 198.609375 C 87.957031 198.734375 87.644531 198.796875 87.320312 198.796875 C 86.992188 198.796875 86.679688 198.734375 86.375 198.609375 C 86.074219 198.484375 85.808594 198.308594 85.578125 198.078125 C 85.347656 197.847656 85.167969 197.582031 85.046875 197.277344 C 84.921875 196.976562 84.859375 196.664062 84.859375 196.335938 C 84.859375 196.011719 84.921875 195.699219 85.046875 195.394531 C 85.167969 195.09375 85.347656 194.828125 85.578125 194.597656 C 85.808594 194.367188 86.074219 194.1875 86.375 194.0625 C 86.679688 193.9375 86.992188 193.875 87.320312 193.875 C 87.644531 193.875 87.957031 193.9375 88.261719 194.0625 C 88.5625 194.1875 88.828125 194.367188 89.058594 194.597656 C 89.289062 194.828125 89.46875 195.09375 89.589844 195.394531 C 89.714844 195.699219 89.777344 196.011719 89.777344 196.335938 Z M 89.777344 196.335938 "/><path style=" stroke:none;fill-rule:nonzero;fill:#ffffff;fill-opacity:1;" d="M 130.167969 196.335938 C 130.167969 196.664062 130.105469 196.976562 129.980469 197.277344 C 129.855469 197.582031 129.675781 197.847656 129.445312 198.078125 C 129.214844 198.308594 128.949219 198.484375 128.648438 198.609375 C 128.347656 198.734375 128.03125 198.796875 127.707031 198.796875 C 127.378906 198.796875 127.066406 198.734375 126.765625 198.609375 C 126.464844 198.484375 126.195312 198.308594 125.964844 198.078125 C 125.734375 197.847656 125.558594 197.582031 125.433594 197.277344 C 125.308594 196.976562 125.246094 196.664062 125.246094 196.335938 C 125.246094 196.011719 125.308594 195.699219 125.433594 195.394531 C 125.558594 195.09375 125.734375 194.828125 125.964844 194.597656 C 126.195312 194.367188 126.464844 194.1875 126.765625 194.0625 C 127.066406 193.9375 127.378906 193.875 127.707031 193.875 C 128.03125 193.875 128.347656 193.9375 128.648438 194.0625 C 128.949219 194.1875 129.214844 194.367188 129.445312 194.597656 C 129.675781 194.828125 129.855469 195.09375 129.980469 195.394531 C 130.105469 195.699219 130.167969 196.011719 130.167969 196.335938 Z M 130.167969 196.335938 "/><g clip-rule="nonzero" clip-path="url(#dd1000e9c8)"><path style=" stroke:none;fill-rule:nonzero;fill:#ffffff;fill-opacity:1;" d="M 107.664062 108.121094 C 75.84375 108.121094 50.046875 133.917969 50.046875 165.738281 C 50.046875 197.558594 75.84375 223.355469 107.664062 223.355469 C 139.484375 223.355469 165.28125 197.558594 165.28125 165.738281 C 165.28125 133.917969 139.484375 108.121094 107.664062 108.121094 Z M 91.917969 187.898438 L 127.707031 187.898438 C 132.359375 187.898438 136.144531 191.683594 136.144531 196.335938 C 136.144531 200.988281 132.359375 204.777344 127.707031 204.777344 C 123.050781 204.777344 119.265625 200.988281 119.265625 196.335938 C 119.265625 195.480469 119.398438 194.65625 119.632812 193.875 L 95.386719 193.875 C 95.625 194.65625 95.757812 195.480469 95.757812 196.335938 C 95.757812 200.988281 91.972656 204.777344 87.320312 204.777344 C 82.664062 204.777344 78.878906 200.988281 78.878906 196.335938 C 78.878906 192.179688 81.902344 188.726562 85.867188 188.035156 L 84.382812 179.863281 L 84.367188 179.785156 L 76.5 140.847656 L 69.269531 140.894531 L 69.230469 134.917969 L 81.382812 134.839844 L 84.324219 149.390625 L 138.804688 155.921875 L 131.886719 182.292969 L 90.898438 182.292969 Z M 91.917969 187.898438 "/></g></g></svg>