<svg xmlns="http://www.w3.org/2000/svg" xmlns:xlink="http://www.w3.org/1999/xlink" width="500" zoomAndPan="magnify" viewBox="0 0 375 374.999991" height="500" preserveAspectRatio="xMidYMid meet" version="1.2"><defs><clipPath id="d5601db458"><path d="M 283 81 L 315 81 L 315 125 L 283 125 Z M 283 81 "/></clipPath><clipPath id="6b393a8f76"><path d="M 280.777344 82.480469 L 312.136719 79.515625 L 316.300781 123.570312 L 284.941406 126.535156 Z M 280.777344 82.480469 "/></clipPath><clipPath id="222abcd9e3"><path d="M 280.777344 82.480469 L 312.136719 79.515625 L 316.300781 123.570312 L 284.941406 126.535156 Z M 280.777344 82.480469 "/></clipPath><clipPath id="19ced18ac2"><path d="M 54.285156 114.945312 L 158.5 114.945312 L 158.5 219.160156 L 54.285156 219.160156 Z M 54.285156 114.945312 "/></clipPath><clipPath id="a03fcfbae2"><path d="M 106.390625 114.945312 C 77.613281 114.945312 54.285156 138.273438 54.285156 167.054688 C 54.285156 195.832031 77.613281 219.160156 106.390625 219.160156 C 135.171875 219.160156 158.5 195.832031 158.5 167.054688 C 158.5 138.273438 135.171875 114.945312 106.390625 114.945312 Z M 106.390625 114.945312 "/></clipPath><clipPath id="c10027e6d1"><path d="M 77 250 L 109 250 L 109 296 L 77 296 Z M 77 250 "/></clipPath><clipPath id="32811f95bb"><path d="M 103.003906 298.019531 L 72.105469 291.898438 L 80.703125 248.492188 L 111.601562 254.613281 Z M 103.003906 298.019531 "/></clipPath><clipPath id="a1170632d1"><path d="M 103.003906 298.019531 L 72.105469 291.898438 L 80.703125 248.492188 L 111.601562 254.613281 Z M 103.003906 298.019531 "/></clipPath><clipPath id="285b0b8e91"><path d="M 45.351562 102.894531 L 167.601562 102.894531 L 167.601562 225.144531 L 45.351562 225.144531 Z M 45.351562 102.894531 "/></clipPath></defs><g id="7e904a20ca"><g style="fill:#ea5b62;fill-opacity:1;"><g transform="translate(24.325522, 240.829038)"><path style="stroke:none" d="M 81.421875 -157.34375 C 102.347656 -157.34375 120.515625 -149.773438 135.921875 -134.640625 C 151.328125 -119.515625 159.03125 -100.75 159.03125 -78.34375 C 159.03125 -55.9375 151.675781 -36.851562 136.96875 -21.09375 C 122.269531 -5.332031 104.175781 2.546875 82.6875 2.546875 C 61.207031 2.546875 42.9375 -5.226562 27.875 -20.78125 C 12.820312 -36.332031 5.296875 -54.851562 5.296875 -76.34375 C 5.296875 -88.070312 7.414062 -99.0625 11.65625 -109.3125 C 15.90625 -119.5625 21.5625 -128.148438 28.625 -135.078125 C 35.695312 -142.003906 43.828125 -147.445312 53.015625 -151.40625 C 62.203125 -155.363281 71.671875 -157.34375 81.421875 -157.34375 Z M 42.828125 -77.390625 C 42.828125 -64.816406 46.890625 -54.601562 55.015625 -46.75 C 63.148438 -38.90625 72.234375 -34.984375 82.265625 -34.984375 C 92.304688 -34.984375 101.351562 -38.800781 109.40625 -46.4375 C 117.46875 -54.070312 121.5 -64.320312 121.5 -77.1875 C 121.5 -90.050781 117.4375 -100.367188 109.3125 -108.140625 C 101.1875 -115.921875 92.101562 -119.8125 82.0625 -119.8125 C 72.019531 -119.8125 62.96875 -115.882812 54.90625 -108.03125 C 46.851562 -100.1875 42.828125 -89.972656 42.828125 -77.390625 Z M 42.828125 -77.390625 "/></g></g><g style="fill:#ea5b62;fill-opacity:1;"><g transform="translate(179.737894, 240.829038)"><path style="stroke:none" d="M 37 -128.390625 C 34.382812 -127.617188 30.882812 -127.234375 26.5 -127.234375 C 22.125 -127.234375 18.660156 -127.65625 16.109375 -128.5 C 13.566406 -129.34375 11.765625 -130.789062 10.703125 -132.84375 C 9.648438 -134.894531 9.015625 -136.734375 8.796875 -138.359375 C 8.585938 -139.984375 8.484375 -142.421875 8.484375 -145.671875 C 8.484375 -148.921875 8.585938 -151.320312 8.796875 -152.875 C 9.015625 -154.4375 9.617188 -156.207031 10.609375 -158.1875 C 12.585938 -161.863281 18.03125 -163.703125 26.9375 -163.703125 C 35.414062 -163.703125 40.710938 -161.863281 42.828125 -158.1875 C 43.816406 -156.351562 44.414062 -154.65625 44.625 -153.09375 C 44.84375 -151.539062 44.953125 -149.207031 44.953125 -146.09375 L 44.953125 -144.828125 C 44.953125 -141.710938 44.84375 -139.378906 44.625 -137.828125 C 44.414062 -136.273438 43.742188 -134.507812 42.609375 -132.53125 C 41.484375 -130.550781 39.613281 -129.171875 37 -128.390625 Z M 16.4375 -111.109375 C 19.050781 -111.960938 22.546875 -112.390625 26.921875 -112.390625 C 31.304688 -112.390625 34.769531 -111.960938 37.3125 -111.109375 C 39.863281 -110.265625 41.664062 -108.816406 42.71875 -106.765625 C 43.78125 -104.710938 44.414062 -102.875 44.625 -101.25 C 44.84375 -99.625 44.953125 -97.1875 44.953125 -93.9375 L 44.953125 -6.578125 C 44.953125 9.960938 39.226562 23.179688 27.78125 33.078125 C 16.332031 42.972656 3.75 47.921875 -9.96875 47.921875 C -13.21875 47.921875 -15.617188 47.8125 -17.171875 47.59375 C -18.734375 47.382812 -20.503906 46.785156 -22.484375 45.796875 C -26.148438 43.816406 -27.984375 38.65625 -27.984375 30.3125 C -27.984375 21.976562 -26.460938 16.75 -23.421875 14.625 C -20.390625 12.507812 -16.289062 11.453125 -11.125 11.453125 C -5.96875 11.453125 -1.410156 10.035156 2.546875 7.203125 C 6.503906 4.378906 8.484375 -0.707031 8.484375 -8.0625 L 8.484375 -95.421875 C 8.484375 -100.367188 9.15625 -104.007812 10.5 -106.34375 C 11.84375 -108.675781 13.820312 -110.265625 16.4375 -111.109375 Z M 16.4375 -111.109375 "/></g></g><g style="fill:#ea5b62;fill-opacity:1;"><g transform="translate(224.26154, 240.829038)"><path style="stroke:none" d="M 81 -99.875 C 81.851562 -107.789062 87.4375 -111.75 97.75 -111.75 C 103.257812 -111.75 107.359375 -111.320312 110.046875 -110.46875 C 112.734375 -109.625 114.609375 -108.140625 115.671875 -106.015625 C 116.734375 -103.898438 117.367188 -102.03125 117.578125 -100.40625 C 117.785156 -98.78125 117.890625 -96.34375 117.890625 -93.09375 L 117.890625 -18.875 C 117.890625 -15.625 117.785156 -13.1875 117.578125 -11.5625 C 117.367188 -9.9375 116.769531 -8.0625 115.78125 -5.9375 C 113.800781 -2.257812 108.957031 -0.421875 101.25 -0.421875 C 93.550781 -0.421875 88.390625 -1.375 85.765625 -3.28125 C 83.148438 -5.195312 81.632812 -7.988281 81.21875 -11.65625 C 75.988281 -4.164062 67.257812 -0.421875 55.03125 -0.421875 C 42.800781 -0.421875 31.453125 -6.003906 20.984375 -17.171875 C 10.523438 -28.335938 5.296875 -41.304688 5.296875 -56.078125 C 5.296875 -70.859375 10.5625 -83.796875 21.09375 -94.890625 C 31.625 -105.984375 43.179688 -111.53125 55.765625 -111.53125 C 60.578125 -111.53125 64.960938 -110.679688 68.921875 -108.984375 C 72.878906 -107.296875 75.632812 -105.707031 77.1875 -104.21875 C 78.738281 -102.738281 80.007812 -101.289062 81 -99.875 Z M 42.40625 -55.765625 C 42.40625 -51.097656 44.242188 -46.890625 47.921875 -43.140625 C 51.597656 -39.398438 56.050781 -37.53125 61.28125 -37.53125 C 66.507812 -37.53125 70.851562 -39.4375 74.3125 -43.25 C 77.78125 -47.070312 79.515625 -51.28125 79.515625 -55.875 C 79.515625 -60.46875 77.851562 -64.742188 74.53125 -68.703125 C 71.207031 -72.660156 66.753906 -74.640625 61.171875 -74.640625 C 55.585938 -74.640625 51.0625 -72.660156 47.59375 -68.703125 C 44.132812 -64.742188 42.40625 -60.429688 42.40625 -55.765625 Z M 42.40625 -55.765625 "/></g></g><g clip-rule="nonzero" clip-path="url(#d5601db458)"><g clip-rule="nonzero" clip-path="url(#6b393a8f76)"><g clip-rule="nonzero" clip-path="url(#222abcd9e3)"><path style=" stroke:none;fill-rule:nonzero;fill:#ea5b62;fill-opacity:1;" d="M 300.066406 104.105469 C 302.414062 102.179688 305.25 100.558594 308.28125 100.683594 C 311.316406 100.808594 314.382812 103.28125 314.222656 106.308594 C 314.132812 107.953125 313.148438 109.445312 311.890625 110.503906 C 310.632812 111.566406 309.113281 112.265625 307.617188 112.949219 C 305 114.144531 302.386719 115.339844 299.769531 116.535156 C 297.367188 117.632812 294.515625 119.574219 291.9375 120.113281 C 288.953125 120.738281 290.796875 117.191406 291.414062 115.730469 C 292.3125 113.601562 293.457031 111.574219 294.808594 109.703125 C 296.277344 107.675781 298.039062 105.597656 300.066406 104.105469 Z M 302.457031 120.277344 C 301.136719 120.765625 297.59375 121.972656 297.003906 123.382812 C 296.300781 125.058594 300.84375 123.90625 301.878906 123.796875 C 304.28125 123.546875 306.683594 123.292969 309.082031 123.042969 C 309.695312 122.980469 310.316406 122.910156 310.875 122.660156 C 311.433594 122.40625 311.925781 121.929688 312.039062 121.328125 C 312.1875 120.535156 311.628906 119.746094 310.910156 119.386719 C 310.191406 119.023438 309.351562 119.003906 308.546875 119.042969 C 306.460938 119.164062 304.421875 119.554688 302.460938 120.28125 Z M 283.363281 106.167969 C 283.511719 108.699219 283.574219 112.09375 284.234375 114.914062 C 284.457031 115.871094 285.796875 115.929688 286.09375 114.992188 C 286.875 112.535156 288.085938 108.964844 290.472656 104.882812 C 293.234375 100.160156 297.175781 95.945312 298.253906 90.582031 C 298.769531 88.035156 298.550781 85.085938 296.679688 83.285156 C 295.007812 81.675781 292.324219 81.410156 290.183594 82.296875 C 288.042969 83.179688 286.421875 85.054688 285.433594 87.152344 C 284.363281 89.414062 283.957031 91.933594 283.667969 94.410156 C 283.207031 98.3125 283.128906 102.246094 283.363281 106.167969 Z M 283.363281 106.167969 "/></g></g></g><g clip-rule="nonzero" clip-path="url(#19ced18ac2)"><g clip-rule="nonzero" clip-path="url(#a03fcfbae2)"><path style=" stroke:none;fill-rule:nonzero;fill:#ea5b62;fill-opacity:1;" d="M 54.285156 114.945312 L 158.5 114.945312 L 158.5 219.160156 L 54.285156 219.160156 Z M 54.285156 114.945312 "/></g></g><g clip-rule="nonzero" clip-path="url(#c10027e6d1)"><g clip-rule="nonzero" clip-path="url(#32811f95bb)"><g clip-rule="nonzero" clip-path="url(#a1170632d1)"><path style=" stroke:none;fill-rule:nonzero;fill:#ea5b62;fill-opacity:1;" d="M 90.695312 271.785156 C 87.898438 272.960938 84.714844 273.703125 81.84375 272.71875 C 78.976562 271.730469 76.742188 268.488281 77.761719 265.628906 C 78.316406 264.078125 79.6875 262.933594 81.195312 262.273438 C 82.703125 261.617188 84.359375 261.382812 85.988281 261.15625 C 88.835938 260.757812 91.683594 260.359375 94.53125 259.960938 C 97.148438 259.59375 100.4375 258.550781 103.0625 258.769531 C 106.101562 259.023438 103.320312 261.894531 102.3125 263.121094 C 100.839844 264.902344 99.167969 266.515625 97.332031 267.925781 C 95.347656 269.449219 93.066406 270.9375 90.695312 271.785156 Z M 93.027344 255.601562 C 94.433594 255.515625 98.171875 255.371094 99.140625 254.1875 C 100.292969 252.785156 95.609375 252.589844 94.585938 252.394531 C 92.214844 251.953125 89.839844 251.507812 87.46875 251.0625 C 86.863281 250.949219 86.25 250.835938 85.640625 250.917969 C 85.035156 251 84.425781 251.316406 84.144531 251.859375 C 83.777344 252.574219 84.089844 253.492188 84.675781 254.042969 C 85.257812 254.59375 86.058594 254.855469 86.839844 255.050781 C 88.871094 255.527344 90.9375 255.734375 93.027344 255.601562 Z M 107.292969 274.585938 C 107.875 272.113281 108.78125 268.84375 108.957031 265.953125 C 109.015625 264.972656 107.75 264.53125 107.195312 265.347656 C 105.746094 267.480469 103.566406 270.554688 100.113281 273.785156 C 96.117188 277.519531 91.136719 280.433594 88.566406 285.261719 C 87.347656 287.554688 86.714844 290.445312 87.992188 292.707031 C 89.132812 294.722656 91.628906 295.746094 93.933594 295.511719 C 96.238281 295.273438 98.328125 293.941406 99.875 292.214844 C 101.546875 290.355469 102.65625 288.054688 103.640625 285.761719 C 105.195312 282.15625 106.398438 278.410156 107.292969 274.585938 Z M 107.292969 274.585938 "/></g></g></g><path style=" stroke:none;fill-rule:nonzero;fill:#000000;fill-opacity:1;" d="M 87.5 196.421875 C 87.5 196.765625 87.433594 197.097656 87.300781 197.417969 C 87.167969 197.738281 86.980469 198.019531 86.734375 198.265625 C 86.492188 198.511719 86.207031 198.699219 85.886719 198.832031 C 85.570312 198.964844 85.234375 199.03125 84.890625 199.03125 C 84.542969 199.03125 84.210938 198.964844 83.890625 198.832031 C 83.570312 198.699219 83.289062 198.511719 83.042969 198.265625 C 82.800781 198.019531 82.609375 197.738281 82.480469 197.417969 C 82.347656 197.097656 82.28125 196.765625 82.28125 196.421875 C 82.28125 196.074219 82.347656 195.742188 82.480469 195.421875 C 82.609375 195.101562 82.800781 194.820312 83.042969 194.574219 C 83.289062 194.328125 83.570312 194.140625 83.890625 194.007812 C 84.210938 193.875 84.542969 193.808594 84.890625 193.808594 C 85.234375 193.808594 85.570312 193.875 85.886719 194.007812 C 86.207031 194.140625 86.492188 194.328125 86.734375 194.574219 C 86.980469 194.820312 87.167969 195.101562 87.300781 195.421875 C 87.433594 195.742188 87.5 196.074219 87.5 196.421875 Z M 87.5 196.421875 "/><path style=" stroke:none;fill-rule:nonzero;fill:#000000;fill-opacity:1;" d="M 130.335938 196.421875 C 130.335938 196.765625 130.269531 197.097656 130.136719 197.417969 C 130.003906 197.738281 129.816406 198.019531 129.570312 198.265625 C 129.324219 198.511719 129.042969 198.699219 128.722656 198.832031 C 128.402344 198.964844 128.070312 199.03125 127.726562 199.03125 C 127.378906 199.03125 127.046875 198.964844 126.726562 198.832031 C 126.40625 198.699219 126.125 198.511719 125.878906 198.265625 C 125.632812 198.019531 125.445312 197.738281 125.3125 197.417969 C 125.179688 197.097656 125.113281 196.765625 125.113281 196.421875 C 125.113281 196.074219 125.179688 195.742188 125.3125 195.421875 C 125.445312 195.101562 125.632812 194.820312 125.878906 194.574219 C 126.125 194.328125 126.40625 194.140625 126.726562 194.007812 C 127.046875 193.875 127.378906 193.808594 127.726562 193.808594 C 128.070312 193.808594 128.402344 193.875 128.722656 194.007812 C 129.042969 194.140625 129.324219 194.328125 129.570312 194.574219 C 129.816406 194.820312 130.003906 195.101562 130.136719 195.421875 C 130.269531 195.742188 130.335938 196.074219 130.335938 196.421875 Z M 130.335938 196.421875 "/><g clip-rule="nonzero" clip-path="url(#285b0b8e91)"><path style=" stroke:none;fill-rule:nonzero;fill:#000000;fill-opacity:1;" d="M 106.46875 102.859375 C 72.71875 102.859375 45.359375 130.21875 45.359375 163.964844 C 45.359375 197.714844 72.71875 225.078125 106.46875 225.078125 C 140.214844 225.078125 167.574219 197.714844 167.574219 163.964844 C 167.574219 130.21875 140.214844 102.859375 106.46875 102.859375 Z M 89.765625 187.46875 L 127.726562 187.46875 C 132.660156 187.46875 136.671875 191.484375 136.671875 196.421875 C 136.671875 201.355469 132.660156 205.371094 127.726562 205.371094 C 122.789062 205.371094 118.773438 201.355469 118.773438 196.421875 C 118.773438 195.511719 118.914062 194.636719 119.164062 193.808594 L 93.449219 193.808594 C 93.699219 194.636719 93.839844 195.511719 93.839844 196.421875 C 93.839844 201.355469 89.824219 205.371094 84.890625 205.371094 C 79.953125 205.371094 75.941406 201.355469 75.941406 196.421875 C 75.941406 192.011719 79.148438 188.347656 83.347656 187.613281 L 81.777344 178.949219 L 81.757812 178.867188 L 73.414062 137.570312 L 65.746094 137.621094 L 65.703125 131.28125 L 78.59375 131.195312 L 81.714844 146.628906 L 139.496094 153.554688 L 132.15625 181.527344 L 88.6875 181.527344 Z M 89.765625 187.46875 "/></g></g></svg>